<svg width="512" height="563" viewBox="0 0 512 563" fill="none" xmlns="http://www.w3.org/2000/svg">
<g clip-path="url(#clip0_166_26)">
<path d="M548.253 423.789C551.216 419.885 555.782 416.016 561.925 412.234C580.991 400.444 582.638 389.735 580.677 382.825C577.566 371.863 563.371 365.319 542.728 365.319C529.248 365.319 515.071 368.029 501.015 372.822C517.815 359.489 531.949 342.994 542.519 324.172C552.923 335.779 568.495 343.16 585.905 343.16C617.284 343.16 642.702 319.231 642.702 289.718V202.876C642.702 175.366 620.613 152.727 592.205 149.773C574.403 64.4824 495.586 0 401.277 0C306.026 0 226.59 65.8156 209.877 152.396C187.631 159.638 171.623 179.47 171.623 202.867V289.709C171.623 319.231 197.05 343.151 228.42 343.151C240.245 343.151 251.224 339.744 260.321 333.923C270.403 349.285 283.004 362.783 297.486 374.007C282.324 368.43 266.918 365.31 252.331 365.31C231.67 365.31 217.484 371.854 214.382 382.816C212.422 389.726 214.086 400.444 233.152 412.226C240.315 416.652 245.351 421.166 248.192 425.688C185.653 459.08 145.639 525.096 145.639 595.896V746.088L146.867 754.357L161.785 759.019C248.811 786.215 334.346 799.991 415.985 799.991C551.921 799.991 630.869 762.182 639.461 757.86L647.434 753.799L654.361 753.912V595.896C654.353 523.24 612.971 456.562 548.253 423.789ZM401.277 18.9526C484.956 18.9526 555.024 75.6884 571.92 151.124C561.228 153.669 551.869 159.184 544.549 166.53C516.874 114.082 461.873 78.2938 398.436 78.2938C338.868 78.2938 286.82 109.925 257.76 157.215C249.882 152.736 240.776 149.974 231.008 149.564C248.54 74.9041 318.208 18.9526 401.277 18.9526ZM285.226 239.665V202.876C285.226 197.429 284.354 192.184 282.742 187.243C290.846 174.529 305.041 166.06 321.231 166.06H352.261C353.699 166.06 355.058 166.356 356.461 166.487C356.644 166.478 356.81 166.373 356.993 166.373H447.765C448.819 166.304 449.83 166.06 450.893 166.06H481.932C507.141 166.06 527.557 186.494 527.557 211.694C527.557 236.903 507.115 257.337 481.932 257.337H450.893C425.701 257.337 405.267 236.903 405.267 211.694C405.267 204.418 407.132 197.621 410.165 191.513H393.007C396.048 197.621 397.913 204.409 397.913 211.694C397.913 236.903 377.47 257.337 352.27 257.337H321.24C306.583 257.337 293.573 250.401 285.226 239.665ZM451.817 399.678C450.423 400.767 448.976 401.786 447.599 402.928H441.029C444.671 401.952 448.279 400.906 451.817 399.678ZM355.886 402.928H347.469C345.56 401.333 343.547 399.895 341.587 398.397C346.257 400.122 351.015 401.63 355.886 402.928ZM532.385 420.216C508.073 431.318 410.775 494.092 409.014 784.455C402.592 784.394 396.153 784.28 389.678 784.045C387.657 467.497 272.007 421.75 261.62 418.308C257.498 411.433 250.728 405.01 241.247 399.146C230.311 392.402 228.96 387.879 229.196 387.034C229.666 385.361 236.045 380.734 252.331 380.734C263.093 380.734 301.181 383.313 339.609 416.469L341.778 418.334H453.281L455.45 416.469C493.878 383.313 531.967 380.734 542.737 380.734C559.023 380.734 565.402 385.361 565.864 387.043C566.099 387.879 564.757 392.393 553.83 399.146C543.347 405.62 536.306 412.557 532.385 420.216Z" fill="#992627"/>
</g>
<defs>
<clipPath id="clip0_166_26">
<rect width="800" height="800" fill="white"/>
</clipPath>
</defs>
</svg>
