<svg width="100" height="125" viewBox="0 0 100 125" fill="none" xmlns="http://www.w3.org/2000/svg">
<path d="M27.0998 37.8998C31.6838 37.8998 35.3998 34.1838 35.3998 29.5998C35.3998 25.0158 31.6838 21.2998 27.0998 21.2998C22.5158 21.2998 18.7998 25.0158 18.7998 29.5998C18.7998 34.1838 22.5158 37.8998 27.0998 37.8998Z" fill="#992627"/>
<path d="M26.6 52.5001C29.1 52.5001 31.4 53.5001 33.1 55.1001C33.9 54.9001 34.8 54.7001 35.6 54.6001C31.8 53.4001 29.1 49.8001 29.1 45.6001C29.1 43.5001 29.8 41.6001 31 40.0001C29.7 39.7001 28.4 39.6001 27 39.6001C25.6 39.6001 24.1 39.8001 22.7 40.1001C23.8 41.7001 24.5 43.6001 24.5 45.6001C24.5 49.8001 21.7 53.4001 18 54.6001C18.8 54.7001 19.5 54.9001 20.3 55.1001C21.8 53.4001 24.1 52.5001 26.6 52.5001Z" fill="#992627"/>
<path d="M73.2004 37.8998C77.7843 37.8998 81.5004 34.1838 81.5004 29.5998C81.5004 25.0158 77.7843 21.2998 73.2004 21.2998C68.6164 21.2998 64.9004 25.0158 64.9004 29.5998C64.9004 34.1838 68.6164 37.8998 73.2004 37.8998Z" fill="#992627"/>
<path d="M64.7002 54.3V54.7C65.2002 54.8 65.8002 54.9 66.3002 55C68.0002 53.4 70.3002 52.5 72.7002 52.5C75.2002 52.5 77.5002 53.5 79.2002 55.1C80.1002 54.9 81.0002 54.7 81.9002 54.5C78.1002 53.3 75.4002 49.7 75.4002 45.5C75.4002 43.4 76.1002 41.5 77.2002 39.9C75.9002 39.6 74.5002 39.5 73.1002 39.5C71.7002 39.5 70.2002 39.7 68.8002 40C69.9002 41.6 70.6002 43.5 70.6002 45.5C70.5002 49.5 68.1002 52.9 64.7002 54.3Z" fill="#992627"/>
<path d="M50.5998 37.8998C55.1838 37.8998 58.8998 34.1838 58.8998 29.5998C58.8998 25.0158 55.1838 21.2998 50.5998 21.2998C46.0158 21.2998 42.2998 25.0158 42.2998 29.5998C42.2998 34.1838 46.0158 37.8998 50.5998 37.8998Z" fill="#992627"/>
<path d="M41.4004 54.6002C42.2004 54.7002 42.9004 54.9002 43.7004 55.1002C45.4004 53.5002 47.7004 52.6002 50.1004 52.6002C52.5004 52.6002 54.7004 53.5002 56.4004 55.0002C57.0004 54.9002 57.6004 54.8002 58.2004 54.7002C54.4004 53.5002 51.7004 49.9002 51.7004 45.7002C51.7004 43.5002 52.4004 41.5002 53.7004 39.9002C52.7004 39.7002 51.6004 39.7002 50.6004 39.7002C49.2004 39.7002 47.7004 39.9002 46.3004 40.2002C47.4004 41.8002 48.1004 43.7002 48.1004 45.7002C48.0004 49.8002 45.2004 53.3002 41.4004 54.6002Z" fill="#992627"/>
<path d="M23.3 45.5998C23.3 40.9998 19.6 37.2998 15 37.2998C13.6 37.2998 12.4 37.5998 11.2 38.1998C10.1 41.8998 9.5 45.8998 9.5 49.9998C9.5 50.5998 9.5 51.1998 9.5 51.7998C11 53.0998 12.9 53.8998 15 53.8998C19.6 53.8998 23.3 50.1998 23.3 45.5998Z" fill="#992627"/>
<path d="M17.1004 61.9C17.1004 59.7 17.9004 57.6 19.2004 56C17.8004 55.7 16.3004 55.5 14.9004 55.5C13.2004 55.5 11.5004 55.7 9.90039 56.1C10.9004 62.4 13.3004 68.3 16.8004 73.3C18.7004 72 21.1004 71.2 23.6004 70.9C19.9004 69.6 17.1004 66.1 17.1004 61.9Z" fill="#992627"/>
<path d="M61.0998 53.8998C65.6838 53.8998 69.3998 50.1838 69.3998 45.5998C69.3998 41.0158 65.6838 37.2998 61.0998 37.2998C56.5158 37.2998 52.7998 41.0158 52.7998 45.5998C52.7998 50.1838 56.5158 53.8998 61.0998 53.8998Z" fill="#992627"/>
<path d="M63.1996 61.9C63.1996 59.7 63.9996 57.6 65.2996 56C63.8996 55.7 62.3996 55.5 60.9996 55.5C59.7996 55.5 58.5996 55.6 57.3996 55.8C58.7996 57.4 59.5996 59.6 59.5996 61.9C59.5996 66.1 56.7996 69.7 53.0996 70.9C55.5996 71.3 57.8996 72.1 59.6996 73.2C60.2996 73.6 60.8996 74.1 61.3996 74.6C63.4996 72.5 66.5996 71.3 69.7996 70.8C65.9996 69.6 63.1996 66.1 63.1996 61.9Z" fill="#992627"/>
<path d="M76.5 45.5998C76.5 50.1998 80.2 53.8998 84.8 53.8998C87 53.8998 89 52.9998 90.5 51.5998C90.5 51.0998 90.5 50.5998 90.5 49.9998C90.5 45.9998 89.9 41.9998 88.8 38.2998C87.6 37.5998 86.2 37.2998 84.8 37.2998C80.2 37.2998 76.5 40.9998 76.5 45.5998Z" fill="#992627"/>
<path d="M80.0996 56.1C81.3996 57.7 82.0996 59.7 82.0996 61.9C82.0996 66.1 79.2996 69.7 75.5996 70.9C78.0996 71.3 80.3996 72.1 82.1996 73.2C82.3996 73.4 82.6996 73.5 82.8996 73.7C86.5996 68.6 89.0996 62.7 90.0996 56.2C88.3996 55.7 86.5996 55.5 84.6996 55.5C83.0996 55.5 81.5996 55.7 80.0996 56.1Z" fill="#992627"/>
<path d="M38.5002 53.8998C43.0842 53.8998 46.8002 50.1838 46.8002 45.5998C46.8002 41.0158 43.0842 37.2998 38.5002 37.2998C33.9162 37.2998 30.2002 41.0158 30.2002 45.5998C30.2002 50.1838 33.9162 53.8998 38.5002 53.8998Z" fill="#992627"/>
<path d="M40.6996 61.9C40.6996 59.7 41.4996 57.6 42.7996 56C41.3996 55.7 39.8996 55.5 38.4996 55.5C36.9996 55.5 35.4996 55.7 33.9996 56C35.2996 57.6 36.0996 59.7 36.0996 61.9C36.0996 66.1 33.2996 69.7 29.5996 70.9C32.0996 71.3 34.3996 72.1 36.1996 73.2C37.0996 73.8 37.7996 74.4 38.3996 75.1C40.4996 72.7 43.7996 71.3 47.2996 70.8C43.3996 69.6 40.6996 66.1 40.6996 61.9Z" fill="#992627"/>
<path d="M26.5998 70.2001C31.1838 70.2001 34.8998 66.4841 34.8998 61.9001C34.8998 57.3161 31.1838 53.6001 26.5998 53.6001C22.0158 53.6001 18.2998 57.3161 18.2998 61.9001C18.2998 66.4841 22.0158 70.2001 26.5998 70.2001Z" fill="#992627"/>
<path d="M37.5 76.0998C35.1 73.0998 30.7 71.7998 26.4 71.7998C23.2 71.7998 19.9 72.4998 17.5 74.1998C22.1 80.3998 28.5 85.1998 35.8 87.8998V81.8998C35.8 79.5998 36.5 77.6998 37.5 76.0998Z" fill="#992627"/>
<path d="M72.7004 70.2001C77.2843 70.2001 81.0004 66.4841 81.0004 61.9001C81.0004 57.3161 77.2843 53.6001 72.7004 53.6001C68.1164 53.6001 64.4004 57.3161 64.4004 61.9001C64.4004 66.4841 68.1164 70.2001 72.7004 70.2001Z" fill="#992627"/>
<path d="M62.0996 75.4998C63.4996 77.2998 64.1996 79.3998 64.1996 81.8998V87.8998C71.3996 85.1998 77.5996 80.5998 82.1996 74.5998C79.6996 72.5998 76.0996 71.7998 72.5996 71.7998C68.6996 71.7998 64.5996 72.9998 62.0996 75.4998Z" fill="#992627"/>
<path d="M81.8 18.2C73.3 9.7 62 5 50 5C38 5 26.7 9.7 18.2 18.2C9.7 26.7 5 38 5 50C5 52.3 5.2 54.6 5.5 56.8C5.6 57.2 5.6 57.6 5.7 58C6.9 64.7 9.6 71 13.7 76.5C13.9 76.8 14.2 77.2 14.5 77.5C15.6 79 16.9 80.4 18.2 81.7C23.2 86.7 29.3 90.4 35.8 92.6C36.2 92.7 36.6 92.8 37 93C41.2 94.3 45.5 94.9 50 94.9C54.5 94.9 58.9 94.3 63 93C63.4 92.9 63.8 92.8 64.2 92.6C70.8 90.4 76.8 86.7 81.8 81.7C82.9 80.6 83.9 79.4 84.9 78.2C85.2 77.9 85.4 77.5 85.7 77.2C90 71.6 92.9 65.1 94.2 58.2C94.3 57.8 94.4 57.4 94.4 56.9C94.8 54.6 94.9 52.2 94.9 49.9C95 38 90.3 26.7 81.8 18.2ZM84 74.8C83.8 75.1 83.5 75.4 83.3 75.7C78.4 82 71.8 86.9 64.2 89.7C63.8 89.8 63.4 90 63 90.1C58.9 91.4 54.5 92.2 50 92.2C45.5 92.2 41.1 91.5 37 90.1C36.6 90 36.2 89.8 35.8 89.7C27.9 86.9 21.2 81.8 16.3 75.3C16.1 75 15.8 74.7 15.6 74.4C12 69.1 9.5 63.1 8.4 56.6C8.3 56.2 8.3 55.8 8.2 55.4C8 54.2 7.9 53 7.9 51.8C7.9 51.2 7.9 50.6 7.9 50V49.9C7.9 46.4 8.4 43 9.2 39.7C9.4 39.1 9.5 38.4 9.7 37.8C14.9 20.5 31 7.9 50 7.9C69.1 7.9 85.2 20.6 90.4 38C90.6 38.7 90.8 39.3 91 40C91.7 43.1 92.2 46.2 92.2 49.5C92.2 49.7 92.2 49.8 92.2 50C92.2 50.5 92.2 51.1 92.2 51.6C92.1 53 92 54.3 91.9 55.6C91.8 56 91.8 56.4 91.7 56.8C90.5 63.4 87.8 69.6 84 74.8Z" fill="#992627"/>
<path d="M3.5245 112.637H2.7468C2.7326 112.536 2.7036 112.447 2.6598 112.369C2.616 112.289 2.55978 112.222 2.49112 112.166C2.42247 112.111 2.34316 112.068 2.2532 112.038C2.16442 112.009 2.06795 111.994 1.96378 111.994C1.77557 111.994 1.61162 112.041 1.47195 112.134C1.33227 112.227 1.22396 112.362 1.14702 112.539C1.07008 112.715 1.03161 112.93 1.03161 113.182C1.03161 113.441 1.07008 113.659 1.14702 113.835C1.22514 114.012 1.33404 114.145 1.47372 114.235C1.6134 114.325 1.77498 114.37 1.95845 114.37C2.06143 114.37 2.15672 114.356 2.24432 114.329C2.3331 114.302 2.41181 114.262 2.48047 114.21C2.54912 114.157 2.60594 114.092 2.65092 114.016C2.69709 113.941 2.72905 113.854 2.7468 113.757L3.5245 113.761C3.50438 113.928 3.45407 114.089 3.37358 114.244C3.29427 114.397 3.18714 114.535 3.0522 114.657C2.91844 114.778 2.75864 114.874 2.5728 114.945C2.38814 115.015 2.17921 115.05 1.94602 115.05C1.62169 115.05 1.33168 114.976 1.07599 114.83C0.821496 114.683 0.620265 114.47 0.472301 114.192C0.325521 113.914 0.252131 113.577 0.252131 113.182C0.252131 112.785 0.326705 112.448 0.475852 112.17C0.625 111.892 0.827415 111.68 1.0831 111.534C1.33878 111.387 1.62642 111.314 1.94602 111.314C2.15672 111.314 2.35204 111.344 2.53196 111.403C2.71307 111.462 2.87346 111.548 3.01314 111.662C3.15282 111.774 3.26645 111.912 3.35405 112.076C3.44283 112.239 3.49964 112.426 3.5245 112.637ZM4.06161 115V112.273H4.79492V112.749H4.82333C4.87305 112.579 4.9565 112.451 5.07369 112.365C5.19087 112.277 5.32582 112.234 5.47852 112.234C5.51639 112.234 5.55723 112.236 5.60103 112.241C5.64483 112.246 5.6833 112.252 5.71644 112.26V112.931C5.68093 112.921 5.63181 112.911 5.56907 112.903C5.50633 112.895 5.44892 112.891 5.39684 112.891C5.28557 112.891 5.18614 112.915 5.09854 112.963C5.01213 113.011 4.94348 113.077 4.89258 113.162C4.84286 113.248 4.818 113.346 4.818 113.457V115H4.06161ZM7.22346 115.053C6.94292 115.053 6.70144 114.996 6.49902 114.883C6.29779 114.768 6.14273 114.606 6.03382 114.396C5.92492 114.186 5.87047 113.936 5.87047 113.649C5.87047 113.368 5.92492 113.122 6.03382 112.91C6.14273 112.698 6.29602 112.533 6.4937 112.415C6.69256 112.296 6.92575 112.237 7.19327 112.237C7.37319 112.237 7.54069 112.266 7.69576 112.324C7.85201 112.381 7.98813 112.467 8.10414 112.582C8.22132 112.696 8.31247 112.841 8.37757 113.015C8.44268 113.188 8.47523 113.39 8.47523 113.622V113.83H6.17232V113.361H7.76323C7.76323 113.252 7.73955 113.156 7.69221 113.072C7.64486 112.988 7.57916 112.922 7.49512 112.875C7.41226 112.826 7.31578 112.802 7.2057 112.802C7.09088 112.802 6.98908 112.828 6.9003 112.882C6.81271 112.934 6.74405 113.004 6.69434 113.093C6.64462 113.181 6.61917 113.278 6.61799 113.386V113.832C6.61799 113.967 6.64284 114.083 6.69256 114.181C6.74346 114.28 6.81507 114.355 6.9074 114.409C6.99973 114.462 7.10923 114.489 7.23588 114.489C7.31993 114.489 7.39687 114.477 7.46671 114.453C7.53655 114.429 7.59632 114.394 7.64604 114.347C7.69576 114.299 7.73364 114.241 7.75968 114.173L8.45925 114.219C8.42374 114.387 8.35094 114.534 8.24086 114.659C8.13195 114.783 7.99109 114.88 7.81827 114.95C7.64663 115.019 7.44836 115.053 7.22346 115.053ZM9.74654 115.051C9.57253 115.051 9.41747 115.021 9.28134 114.961C9.14521 114.899 9.03749 114.809 8.95819 114.689C8.88006 114.569 8.841 114.418 8.841 114.238C8.841 114.087 8.86882 113.96 8.92445 113.857C8.98008 113.754 9.05584 113.671 9.15172 113.608C9.2476 113.545 9.3565 113.498 9.47843 113.466C9.60153 113.434 9.73056 113.411 9.8655 113.398C10.0241 113.382 10.152 113.366 10.249 113.352C10.3461 113.337 10.4165 113.314 10.4603 113.285C10.5041 113.255 10.526 113.211 10.526 113.153V113.143C10.526 113.03 10.4905 112.943 10.4195 112.882C10.3496 112.82 10.2502 112.789 10.1212 112.789C9.98506 112.789 9.87675 112.82 9.79625 112.88C9.71576 112.939 9.66249 113.014 9.63645 113.104L8.93688 113.047C8.97239 112.881 9.04223 112.738 9.1464 112.617C9.25056 112.495 9.38491 112.402 9.54945 112.337C9.71517 112.27 9.90693 112.237 10.1247 112.237C10.2762 112.237 10.4213 112.255 10.5597 112.29C10.6994 112.326 10.8231 112.381 10.9308 112.456C11.0397 112.53 11.1256 112.626 11.1883 112.743C11.251 112.859 11.2824 112.998 11.2824 113.161V115H10.5651V114.622H10.5438C10.5 114.707 10.4414 114.782 10.368 114.847C10.2946 114.911 10.2064 114.962 10.1034 114.998C10.0004 115.034 9.88148 115.051 9.74654 115.051ZM9.96316 114.529C10.0744 114.529 10.1727 114.508 10.2579 114.464C10.3431 114.419 10.41 114.358 10.4585 114.283C10.5071 114.207 10.5313 114.121 10.5313 114.025V113.736C10.5077 113.751 10.4751 113.765 10.4337 113.778C10.3934 113.79 10.3479 113.801 10.297 113.812C10.2461 113.822 10.1952 113.83 10.1443 113.839C10.0934 113.846 10.0472 113.852 10.0058 113.858C9.91699 113.871 9.83946 113.892 9.77317 113.92C9.70688 113.949 9.65539 113.987 9.6187 114.036C9.582 114.083 9.56365 114.142 9.56365 114.213C9.56365 114.316 9.60094 114.395 9.67551 114.45C9.75127 114.503 9.84715 114.529 9.96316 114.529ZM13.3199 112.273V112.841H11.6775V112.273H13.3199ZM12.0503 111.619H12.8067V114.162C12.8067 114.232 12.8174 114.286 12.8387 114.325C12.86 114.363 12.8896 114.39 12.9275 114.405C12.9665 114.421 13.0115 114.428 13.0624 114.428C13.0979 114.428 13.1334 114.425 13.1689 114.419C13.2045 114.412 13.2317 114.407 13.2506 114.403L13.3696 114.966C13.3317 114.978 13.2784 114.992 13.2098 115.007C13.1411 115.024 13.0577 115.034 12.9594 115.037C12.7771 115.044 12.6173 115.02 12.48 114.964C12.3439 114.909 12.238 114.822 12.1622 114.705C12.0864 114.588 12.0492 114.44 12.0503 114.261V111.619ZM15.0262 115.053C14.7456 115.053 14.5042 114.996 14.3018 114.883C14.1005 114.768 13.9455 114.606 13.8366 114.396C13.7277 114.186 13.6732 113.936 13.6732 113.649C13.6732 113.368 13.7277 113.122 13.8366 112.91C13.9455 112.698 14.0988 112.533 14.2964 112.415C14.4953 112.296 14.7285 112.237 14.996 112.237C15.1759 112.237 15.3434 112.266 15.4985 112.324C15.6547 112.381 15.7909 112.467 15.9069 112.582C16.0241 112.696 16.1152 112.841 16.1803 113.015C16.2454 113.188 16.278 113.39 16.278 113.622V113.83H13.9751V113.361H15.566C15.566 113.252 15.5423 113.156 15.4949 113.072C15.4476 112.988 15.3819 112.922 15.2979 112.875C15.215 112.826 15.1185 112.802 15.0084 112.802C14.8936 112.802 14.7918 112.828 14.703 112.882C14.6154 112.934 14.5468 113.004 14.4971 113.093C14.4474 113.181 14.4219 113.278 14.4207 113.386V113.832C14.4207 113.967 14.4456 114.083 14.4953 114.181C14.5462 114.28 14.6178 114.355 14.7101 114.409C14.8025 114.462 14.912 114.489 15.0386 114.489C15.1227 114.489 15.1996 114.477 15.2694 114.453C15.3393 114.429 15.3991 114.394 15.4488 114.347C15.4985 114.299 15.5364 114.241 15.5624 114.173L16.262 114.219C16.2265 114.387 16.1537 114.534 16.0436 114.659C15.9347 114.783 15.7938 114.88 15.621 114.95C15.4494 115.019 15.2511 115.053 15.0262 115.053ZM17.7765 115.044C17.5694 115.044 17.3818 114.991 17.2137 114.885C17.0468 114.777 16.9142 114.619 16.816 114.411C16.7189 114.201 16.6704 113.944 16.6704 113.64C16.6704 113.327 16.7207 113.068 16.8213 112.86C16.9219 112.652 17.0557 112.496 17.2226 112.393C17.3907 112.289 17.5747 112.237 17.7748 112.237C17.9275 112.237 18.0547 112.263 18.1565 112.315C18.2595 112.366 18.3424 112.43 18.4051 112.507C18.469 112.583 18.5175 112.657 18.5507 112.731H18.5738V111.364H19.3284V115H18.5827V114.563H18.5507C18.5152 114.639 18.4649 114.714 18.3998 114.789C18.3358 114.862 18.2524 114.923 18.1494 114.972C18.0476 115.02 17.9233 115.044 17.7765 115.044ZM18.0162 114.442C18.1382 114.442 18.2412 114.409 18.3252 114.343C18.4104 114.276 18.4755 114.181 18.5205 114.061C18.5667 113.94 18.5898 113.799 18.5898 113.636C18.5898 113.474 18.5673 113.333 18.5223 113.214C18.4773 113.094 18.4122 113.002 18.327 112.937C18.2417 112.872 18.1382 112.839 18.0162 112.839C17.892 112.839 17.7872 112.873 17.702 112.94C17.6167 113.008 17.5522 113.101 17.5084 113.221C17.4646 113.34 17.4427 113.479 17.4427 113.636C17.4427 113.795 17.4646 113.935 17.5084 114.057C17.5534 114.178 17.6179 114.273 17.702 114.341C17.7872 114.409 17.892 114.442 18.0162 114.442ZM21.1217 115V111.364H21.8781V112.731H21.9012C21.9343 112.657 21.9823 112.583 22.045 112.507C22.1089 112.43 22.1918 112.366 22.2936 112.315C22.3966 112.263 22.5244 112.237 22.6771 112.237C22.876 112.237 23.0595 112.289 23.2275 112.393C23.3956 112.496 23.53 112.652 23.6306 112.86C23.7312 113.068 23.7815 113.327 23.7815 113.64C23.7815 113.944 23.7324 114.201 23.6341 114.411C23.5371 114.619 23.4045 114.777 23.2364 114.885C23.0695 114.991 22.8825 115.044 22.6753 115.044C22.5286 115.044 22.4037 115.02 22.3007 114.972C22.1989 114.923 22.1154 114.862 22.0503 114.789C21.9852 114.714 21.9355 114.639 21.9012 114.563H21.8675V115H21.1217ZM21.8621 113.636C21.8621 113.799 21.8846 113.94 21.9296 114.061C21.9746 114.181 22.0397 114.276 22.1249 114.343C22.2101 114.409 22.3137 114.442 22.4356 114.442C22.5587 114.442 22.6629 114.409 22.7481 114.341C22.8334 114.273 22.8979 114.178 22.9417 114.057C22.9867 113.935 23.0091 113.795 23.0091 113.636C23.0091 113.479 22.9872 113.34 22.9434 113.221C22.8997 113.101 22.8351 113.008 22.7499 112.94C22.6647 112.873 22.5599 112.839 22.4356 112.839C22.3125 112.839 22.2084 112.872 22.1231 112.937C22.0391 113.002 21.9746 113.094 21.9296 113.214C21.8846 113.333 21.8621 113.474 21.8621 113.636ZM24.6653 116.023C24.5694 116.023 24.4795 116.015 24.3954 116C24.3126 115.985 24.2439 115.967 24.1895 115.945L24.3599 115.38C24.4487 115.407 24.5286 115.422 24.5996 115.424C24.6718 115.427 24.734 115.41 24.786 115.375C24.8393 115.339 24.8825 115.279 24.9157 115.194L24.96 115.078L23.9817 112.273H24.7772L25.3418 114.276H25.3702L25.9402 112.273H26.7409L25.6809 115.295C25.63 115.442 25.5608 115.569 25.4732 115.678C25.3868 115.788 25.2773 115.873 25.1447 115.932C25.0121 115.993 24.8523 116.023 24.6653 116.023ZM28.2994 115V111.364H29.7554C30.0229 111.364 30.2461 111.403 30.4248 111.483C30.6035 111.562 30.7379 111.672 30.8279 111.813C30.9178 111.953 30.9628 112.114 30.9628 112.296C30.9628 112.438 30.9344 112.563 30.8776 112.67C30.8208 112.777 30.7426 112.865 30.6432 112.933C30.545 113.001 30.4325 113.049 30.3058 113.077V113.113C30.4443 113.118 30.574 113.158 30.6947 113.23C30.8166 113.302 30.9155 113.403 30.9912 113.533C31.067 113.662 31.1048 113.816 31.1048 113.995C31.1048 114.188 31.0569 114.36 30.961 114.512C30.8663 114.662 30.7261 114.781 30.5402 114.869C30.3544 114.956 30.1253 115 29.8531 115H28.2994ZM29.0683 114.371H29.695C29.9093 114.371 30.0655 114.331 30.1638 114.249C30.262 114.166 30.3112 114.056 30.3112 113.919C30.3112 113.818 30.2869 113.729 30.2384 113.652C30.1898 113.575 30.1206 113.515 30.0306 113.471C29.9419 113.427 29.8359 113.406 29.7128 113.406H29.0683V114.371ZM29.0683 112.885H29.6382C29.7436 112.885 29.8371 112.867 29.9188 112.83C30.0016 112.792 30.0667 112.739 30.1141 112.67C30.1626 112.602 30.1869 112.52 30.1869 112.424C30.1869 112.292 30.1401 112.186 30.0466 112.106C29.9543 112.025 29.8229 111.985 29.6524 111.985H29.0683V112.885ZM32.3473 111.364V115H31.5909V111.364H32.3473ZM33.7309 115.051C33.5569 115.051 33.4018 115.021 33.2657 114.961C33.1296 114.899 33.0219 114.809 32.9426 114.689C32.8644 114.569 32.8254 114.418 32.8254 114.238C32.8254 114.087 32.8532 113.96 32.9088 113.857C32.9645 113.754 33.0402 113.671 33.1361 113.608C33.232 113.545 33.3409 113.498 33.4628 113.466C33.5859 113.434 33.7149 113.411 33.8499 113.398C34.0085 113.382 34.1363 113.366 34.2334 113.352C34.3305 113.337 34.4009 113.314 34.4447 113.285C34.4885 113.255 34.5104 113.211 34.5104 113.153V113.143C34.5104 113.03 34.4749 112.943 34.4039 112.882C34.334 112.82 34.2346 112.789 34.1056 112.789C33.9694 112.789 33.8611 112.82 33.7806 112.88C33.7001 112.939 33.6469 113.014 33.6208 113.104L32.9213 113.047C32.9568 112.881 33.0266 112.738 33.1308 112.617C33.2349 112.495 33.3693 112.402 33.5338 112.337C33.6995 112.27 33.8913 112.237 34.1091 112.237C34.2606 112.237 34.4056 112.255 34.5441 112.29C34.6838 112.326 34.8075 112.381 34.9152 112.456C35.0241 112.53 35.1099 112.626 35.1727 112.743C35.2354 112.859 35.2668 112.998 35.2668 113.161V115H34.5494V114.622H34.5281C34.4843 114.707 34.4258 114.782 34.3524 114.847C34.279 114.911 34.1908 114.962 34.0878 114.998C33.9848 115.034 33.8659 115.051 33.7309 115.051ZM33.9475 114.529C34.0588 114.529 34.157 114.508 34.2423 114.464C34.3275 114.419 34.3944 114.358 34.4429 114.283C34.4914 114.207 34.5157 114.121 34.5157 114.025V113.736C34.492 113.751 34.4595 113.765 34.4181 113.778C34.3778 113.79 34.3322 113.801 34.2813 113.812C34.2304 113.822 34.1795 113.83 34.1286 113.839C34.0777 113.846 34.0316 113.852 33.9901 113.858C33.9014 113.871 33.8238 113.892 33.7575 113.92C33.6913 113.949 33.6398 113.987 33.6031 114.036C33.5664 114.083 33.548 114.142 33.548 114.213C33.548 114.316 33.5853 114.395 33.6599 114.45C33.7356 114.503 33.8315 114.529 33.9475 114.529ZM36.539 114.215L36.5407 113.308H36.6508L37.5244 112.273H38.3927L37.219 113.643H37.0397L36.539 114.215ZM35.8536 115V111.364H36.61V115H35.8536ZM37.5581 115L36.7556 113.812L37.2599 113.278L38.4442 115H37.5581ZM39.8944 115.053C39.6138 115.053 39.3723 114.996 39.1699 114.883C38.9687 114.768 38.8136 114.606 38.7047 114.396C38.5958 114.186 38.5414 113.936 38.5414 113.649C38.5414 113.368 38.5958 113.122 38.7047 112.91C38.8136 112.698 38.9669 112.533 39.1646 112.415C39.3635 112.296 39.5967 112.237 39.8642 112.237C40.0441 112.237 40.2116 112.266 40.3667 112.324C40.5229 112.381 40.659 112.467 40.775 112.582C40.8922 112.696 40.9834 112.841 41.0485 113.015C41.1136 113.188 41.1461 113.39 41.1461 113.622V113.83H38.8432V113.361H40.4341C40.4341 113.252 40.4105 113.156 40.3631 113.072C40.3158 112.988 40.2501 112.922 40.166 112.875C40.0832 112.826 39.9867 112.802 39.8766 112.802C39.7618 112.802 39.66 112.828 39.5712 112.882C39.4836 112.934 39.415 113.004 39.3652 113.093C39.3155 113.181 39.2901 113.278 39.2889 113.386V113.832C39.2889 113.967 39.3137 114.083 39.3635 114.181C39.4144 114.28 39.486 114.355 39.5783 114.409C39.6706 114.462 39.7801 114.489 39.9068 114.489C39.9908 114.489 40.0678 114.477 40.1376 114.453C40.2074 114.429 40.2672 114.394 40.3169 114.347C40.3667 114.299 40.4045 114.241 40.4306 114.173L41.1301 114.219C41.0946 114.387 41.0218 114.534 40.9118 114.659C40.8029 114.783 40.662 114.88 40.4892 114.95C40.3175 115.019 40.1193 115.053 39.8944 115.053ZM42.6727 111.998V111.364H45.6592V111.998H44.5459V115H43.786V111.998H42.6727ZM46.8932 113.423V115H46.1368V111.364H46.8719V112.754H46.9039C46.9654 112.593 47.0648 112.467 47.2021 112.376C47.3395 112.283 47.5117 112.237 47.7188 112.237C47.9082 112.237 48.0734 112.279 48.2142 112.362C48.3563 112.443 48.4664 112.561 48.5445 112.715C48.6238 112.868 48.6628 113.05 48.6617 113.263V115H47.9053V113.398C47.9065 113.23 47.8638 113.1 47.7774 113.006C47.6922 112.913 47.5727 112.866 47.4188 112.866C47.3158 112.866 47.2246 112.888 47.1453 112.931C47.0672 112.975 47.0057 113.039 46.9607 113.123C46.9169 113.206 46.8944 113.306 46.8932 113.423ZM50.4892 115.053C50.2134 115.053 49.9748 114.995 49.7736 114.877C49.5736 114.759 49.4191 114.595 49.3102 114.384C49.2013 114.172 49.1468 113.926 49.1468 113.647C49.1468 113.365 49.2013 113.119 49.3102 112.908C49.4191 112.696 49.5736 112.532 49.7736 112.415C49.9748 112.296 50.2134 112.237 50.4892 112.237C50.765 112.237 51.0029 112.296 51.2029 112.415C51.4042 112.532 51.5592 112.696 51.6681 112.908C51.777 113.119 51.8315 113.365 51.8315 113.647C51.8315 113.926 51.777 114.172 51.6681 114.384C51.5592 114.595 51.4042 114.759 51.2029 114.877C51.0029 114.995 50.765 115.053 50.4892 115.053ZM50.4927 114.467C50.6182 114.467 50.723 114.432 50.807 114.361C50.891 114.289 50.9544 114.19 50.997 114.066C51.0408 113.942 51.0627 113.8 51.0627 113.642C51.0627 113.483 51.0408 113.342 50.997 113.217C50.9544 113.093 50.891 112.995 50.807 112.923C50.723 112.85 50.6182 112.814 50.4927 112.814C50.3661 112.814 50.2595 112.85 50.1731 112.923C50.0879 112.995 50.0234 113.093 49.9796 113.217C49.937 113.342 49.9157 113.483 49.9157 113.642C49.9157 113.8 49.937 113.942 49.9796 114.066C50.0234 114.19 50.0879 114.289 50.1731 114.361C50.2595 114.432 50.3661 114.467 50.4927 114.467ZM52.3233 115V112.273H53.0442V112.754H53.0762C53.133 112.594 53.2277 112.468 53.3603 112.376C53.4928 112.283 53.6515 112.237 53.8361 112.237C54.0231 112.237 54.1824 112.284 54.3137 112.377C54.4451 112.47 54.5327 112.595 54.5765 112.754H54.6049C54.6606 112.598 54.7612 112.473 54.9068 112.379C55.0536 112.285 55.227 112.237 55.427 112.237C55.6815 112.237 55.8881 112.318 56.0467 112.48C56.2065 112.641 56.2864 112.87 56.2864 113.166V115H55.5318V113.315C55.5318 113.163 55.4915 113.05 55.411 112.974C55.3306 112.898 55.2299 112.86 55.1092 112.86C54.9719 112.86 54.8648 112.904 54.7878 112.992C54.7109 113.078 54.6724 113.192 54.6724 113.335V115H53.9391V113.299C53.9391 113.165 53.9006 113.059 53.8237 112.979C53.7479 112.9 53.6479 112.86 53.5236 112.86C53.4396 112.86 53.3638 112.882 53.2963 112.924C53.2301 112.966 53.1774 113.024 53.1383 113.1C53.0993 113.175 53.0797 113.262 53.0797 113.363V115H52.3233ZM56.8839 116.023V112.273H57.6296V112.731H57.6634C57.6965 112.657 57.7444 112.583 57.8072 112.507C57.8711 112.43 57.954 112.366 58.0558 112.315C58.1587 112.263 58.2866 112.237 58.4393 112.237C58.6381 112.237 58.8216 112.289 58.9897 112.393C59.1578 112.496 59.2921 112.652 59.3928 112.86C59.4934 113.068 59.5437 113.327 59.5437 113.64C59.5437 113.944 59.4946 114.201 59.3963 114.411C59.2992 114.619 59.1667 114.777 58.9986 114.885C58.8317 114.991 58.6446 115.044 58.4375 115.044C58.2907 115.044 58.1658 115.02 58.0629 114.972C57.9611 114.923 57.8776 114.862 57.8125 114.789C57.7474 114.714 57.6977 114.639 57.6634 114.563H57.6403V116.023H56.8839ZM57.6243 113.636C57.6243 113.799 57.6468 113.94 57.6918 114.061C57.7367 114.181 57.8018 114.276 57.8871 114.343C57.9723 114.409 58.0759 114.442 58.1978 114.442C58.3209 114.442 58.4251 114.409 58.5103 114.341C58.5955 114.273 58.66 114.178 58.7038 114.057C58.7488 113.935 58.7713 113.795 58.7713 113.636C58.7713 113.479 58.7494 113.34 58.7056 113.221C58.6618 113.101 58.5973 113.008 58.5121 112.94C58.4268 112.873 58.3221 112.839 58.1978 112.839C58.0747 112.839 57.9705 112.872 57.8853 112.937C57.8013 113.002 57.7367 113.094 57.6918 113.214C57.6468 113.333 57.6243 113.474 57.6243 113.636ZM62.3171 113.05L61.6246 113.093C61.6128 113.034 61.5874 112.981 61.5483 112.933C61.5092 112.885 61.4577 112.846 61.3938 112.818C61.3311 112.788 61.2559 112.773 61.1683 112.773C61.0511 112.773 60.9523 112.798 60.8718 112.848C60.7913 112.897 60.7511 112.962 60.7511 113.043C60.7511 113.108 60.7771 113.163 60.8292 113.208C60.8813 113.253 60.9706 113.29 61.0973 113.317L61.5909 113.416C61.8561 113.471 62.0537 113.558 62.1839 113.679C62.3142 113.8 62.3793 113.958 62.3793 114.155C62.3793 114.334 62.3266 114.49 62.2212 114.625C62.1171 114.76 61.9738 114.866 61.7915 114.941C61.6104 115.016 61.4015 115.053 61.1648 115.053C60.8037 115.053 60.5161 114.978 60.3018 114.828C60.0888 114.676 59.9639 114.47 59.9272 114.21L60.6712 114.171C60.6937 114.281 60.7481 114.365 60.8345 114.423C60.9209 114.48 61.0316 114.508 61.1665 114.508C61.2991 114.508 61.4057 114.483 61.4862 114.432C61.5678 114.38 61.6093 114.313 61.6104 114.231C61.6093 114.163 61.5803 114.106 61.5234 114.062C61.4666 114.018 61.379 113.983 61.2607 113.96L60.7884 113.865C60.522 113.812 60.3237 113.72 60.1935 113.588C60.0645 113.457 60 113.29 60 113.086C60 112.911 60.0473 112.76 60.142 112.633C60.2379 112.507 60.3723 112.409 60.5451 112.34C60.7191 112.272 60.9227 112.237 61.1559 112.237C61.5004 112.237 61.7714 112.31 61.9691 112.456C62.168 112.601 62.284 112.799 62.3171 113.05ZM64.0878 115.053C63.812 115.053 63.5735 114.995 63.3722 114.877C63.1722 114.759 63.0177 114.595 62.9088 114.384C62.7999 114.172 62.7455 113.926 62.7455 113.647C62.7455 113.365 62.7999 113.119 62.9088 112.908C63.0177 112.696 63.1722 112.532 63.3722 112.415C63.5735 112.296 63.812 112.237 64.0878 112.237C64.3636 112.237 64.6015 112.296 64.8016 112.415C65.0028 112.532 65.1579 112.696 65.2668 112.908C65.3757 113.119 65.4301 113.365 65.4301 113.647C65.4301 113.926 65.3757 114.172 65.2668 114.384C65.1579 114.595 65.0028 114.759 64.8016 114.877C64.6015 114.995 64.3636 115.053 64.0878 115.053ZM64.0914 114.467C64.2168 114.467 64.3216 114.432 64.4056 114.361C64.4897 114.289 64.553 114.19 64.5956 114.066C64.6394 113.942 64.6613 113.8 64.6613 113.642C64.6613 113.483 64.6394 113.342 64.5956 113.217C64.553 113.093 64.4897 112.995 64.4056 112.923C64.3216 112.85 64.2168 112.814 64.0914 112.814C63.9647 112.814 63.8582 112.85 63.7718 112.923C63.6865 112.995 63.622 113.093 63.5782 113.217C63.5356 113.342 63.5143 113.483 63.5143 113.642C63.5143 113.8 63.5356 113.942 63.5782 114.066C63.622 114.19 63.6865 114.289 63.7718 114.361C63.8582 114.432 63.9647 114.467 64.0914 114.467ZM66.6784 113.423V115H65.922V112.273H66.6428V112.754H66.6748C66.7352 112.595 66.8364 112.47 66.9784 112.377C67.1205 112.284 67.2927 112.237 67.4951 112.237C67.6845 112.237 67.8496 112.279 67.9905 112.362C68.1314 112.444 68.2409 112.563 68.319 112.717C68.3971 112.869 68.4362 113.052 68.4362 113.263V115H67.6798V113.398C67.681 113.232 67.6383 113.101 67.5519 113.008C67.4655 112.913 67.3466 112.866 67.195 112.866C67.0932 112.866 67.0033 112.888 66.9252 112.931C66.8482 112.975 66.7878 113.039 66.7441 113.123C66.7014 113.206 66.6795 113.306 66.6784 113.423Z" fill="#992627"/>
<path d="M1.76847 117.273V117.841H0.0852273V117.273H1.76847ZM0.470526 120V117.076C0.470526 116.878 0.508996 116.714 0.585938 116.584C0.664062 116.454 0.770597 116.356 0.90554 116.291C1.04048 116.226 1.19377 116.193 1.36541 116.193C1.48142 116.193 1.58736 116.202 1.68324 116.22C1.7803 116.238 1.85251 116.254 1.89986 116.268L1.76491 116.836C1.73532 116.826 1.69863 116.818 1.65483 116.809C1.61222 116.801 1.56842 116.797 1.52344 116.797C1.41217 116.797 1.33464 116.823 1.29084 116.875C1.24704 116.926 1.22514 116.998 1.22514 117.09V120H0.470526ZM2.23056 120V117.273H2.96387V117.749H2.99228C3.04199 117.579 3.12544 117.451 3.24263 117.365C3.35982 117.277 3.49476 117.234 3.64746 117.234C3.68534 117.234 3.72618 117.236 3.76998 117.241C3.81377 117.246 3.85224 117.252 3.88539 117.26V117.931C3.84988 117.921 3.80075 117.911 3.73801 117.903C3.67528 117.895 3.61787 117.891 3.56578 117.891C3.45452 117.891 3.35508 117.915 3.26749 117.963C3.18108 118.011 3.11242 118.077 3.06152 118.162C3.01181 118.248 2.98695 118.346 2.98695 118.457V120H2.23056ZM5.38175 120.053C5.10594 120.053 4.86742 119.995 4.66619 119.877C4.46615 119.759 4.31167 119.595 4.20277 119.384C4.09387 119.172 4.03942 118.926 4.03942 118.647C4.03942 118.365 4.09387 118.119 4.20277 117.908C4.31167 117.696 4.46615 117.532 4.66619 117.415C4.86742 117.296 5.10594 117.237 5.38175 117.237C5.65755 117.237 5.89548 117.296 6.09553 117.415C6.29676 117.532 6.45182 117.696 6.56072 117.908C6.66963 118.119 6.72408 118.365 6.72408 118.647C6.72408 118.926 6.66963 119.172 6.56072 119.384C6.45182 119.595 6.29676 119.759 6.09553 119.877C5.89548 119.995 5.65755 120.053 5.38175 120.053ZM5.3853 119.467C5.51077 119.467 5.61553 119.432 5.69957 119.361C5.78362 119.289 5.84695 119.19 5.88956 119.066C5.93336 118.942 5.95526 118.8 5.95526 118.642C5.95526 118.483 5.93336 118.342 5.88956 118.217C5.84695 118.093 5.78362 117.995 5.69957 117.923C5.61553 117.85 5.51077 117.814 5.3853 117.814C5.25864 117.814 5.15211 117.85 5.0657 117.923C4.98047 117.995 4.91596 118.093 4.87216 118.217C4.82955 118.342 4.80824 118.483 4.80824 118.642C4.80824 118.8 4.82955 118.942 4.87216 119.066C4.91596 119.19 4.98047 119.289 5.0657 119.361C5.15211 119.432 5.25864 119.467 5.3853 119.467ZM7.21591 120V117.273H7.93679V117.754H7.96875C8.02557 117.594 8.12027 117.468 8.25284 117.376C8.38542 117.283 8.54403 117.237 8.72869 117.237C8.91572 117.237 9.07493 117.284 9.20632 117.377C9.33771 117.47 9.42531 117.595 9.46911 117.754H9.49751C9.55315 117.598 9.65376 117.473 9.79936 117.379C9.94614 117.285 10.1196 117.237 10.3196 117.237C10.5741 117.237 10.7807 117.318 10.9393 117.48C11.0991 117.641 11.179 117.87 11.179 118.166V120H10.4244V118.315C10.4244 118.163 10.3841 118.05 10.3036 117.974C10.2231 117.898 10.1225 117.86 10.0018 117.86C9.86446 117.86 9.75734 117.904 9.6804 117.992C9.60346 118.078 9.56499 118.192 9.56499 118.335V120H8.83168V118.299C8.83168 118.165 8.79321 118.059 8.71626 117.979C8.64051 117.9 8.54048 117.86 8.41619 117.86C8.33215 117.86 8.25639 117.882 8.18892 117.924C8.12263 117.966 8.06996 118.024 8.03089 118.1C7.99183 118.175 7.9723 118.262 7.9723 118.363V120H7.21591ZM14.3843 117.273V117.841H12.7419V117.273H14.3843ZM13.1148 116.619H13.8712V119.162C13.8712 119.232 13.8818 119.286 13.9031 119.325C13.9244 119.363 13.954 119.39 13.9919 119.405C14.031 119.421 14.076 119.428 14.1269 119.428C14.1624 119.428 14.1979 119.425 14.2334 119.419C14.2689 119.412 14.2961 119.407 14.3151 119.403L14.434 119.966C14.3962 119.978 14.3429 119.992 14.2742 120.007C14.2056 120.024 14.1221 120.034 14.0239 120.037C13.8416 120.044 13.6818 120.02 13.5445 119.964C13.4084 119.909 13.3024 119.822 13.2267 119.705C13.1509 119.588 13.1136 119.44 13.1148 119.261V116.619ZM15.692 118.423V120H14.9356V116.364H15.6707V117.754H15.7027C15.7642 117.593 15.8637 117.467 16.001 117.376C16.1383 117.283 16.3105 117.237 16.5177 117.237C16.7071 117.237 16.8722 117.279 17.0131 117.362C17.1551 117.443 17.2652 117.561 17.3433 117.715C17.4226 117.868 17.4617 118.05 17.4605 118.263V120H16.7041V118.398C16.7053 118.23 16.6627 118.1 16.5763 118.006C16.491 117.913 16.3715 117.866 16.2176 117.866C16.1146 117.866 16.0235 117.888 15.9442 117.931C15.866 117.975 15.8045 118.039 15.7595 118.123C15.7157 118.206 15.6932 118.306 15.692 118.423ZM19.2987 120.053C19.0181 120.053 18.7766 119.996 18.5742 119.883C18.373 119.768 18.2179 119.606 18.109 119.396C18.0001 119.186 17.9457 118.936 17.9457 118.649C17.9457 118.368 18.0001 118.122 18.109 117.91C18.2179 117.698 18.3712 117.533 18.5689 117.415C18.7678 117.296 19.0009 117.237 19.2685 117.237C19.4484 117.237 19.6159 117.266 19.771 117.324C19.9272 117.381 20.0633 117.467 20.1793 117.582C20.2965 117.696 20.3877 117.841 20.4528 118.015C20.5179 118.188 20.5504 118.39 20.5504 118.622V118.83H18.2475V118.361H19.8384C19.8384 118.252 19.8147 118.156 19.7674 118.072C19.7201 117.988 19.6544 117.922 19.5703 117.875C19.4875 117.826 19.391 117.802 19.2809 117.802C19.1661 117.802 19.0643 117.828 18.9755 117.882C18.8879 117.934 18.8192 118.004 18.7695 118.093C18.7198 118.181 18.6944 118.278 18.6932 118.386V118.832C18.6932 118.967 18.718 119.083 18.7678 119.181C18.8187 119.28 18.8903 119.355 18.9826 119.409C19.0749 119.462 19.1844 119.489 19.3111 119.489C19.3951 119.489 19.4721 119.477 19.5419 119.453C19.6117 119.429 19.6715 119.394 19.7212 119.347C19.771 119.299 19.8088 119.241 19.8349 119.173L20.5344 119.219C20.4989 119.387 20.4261 119.534 20.3161 119.659C20.2071 119.783 20.0663 119.88 19.8935 119.95C19.7218 120.019 19.5236 120.053 19.2987 120.053ZM25.257 116.364V120H24.593L23.0109 117.711H22.9843V120H22.2155V116.364H22.8902L24.4598 118.651H24.4917V116.364H25.257ZM27.1103 120.053C26.8345 120.053 26.5959 119.995 26.3947 119.877C26.1947 119.759 26.0402 119.595 25.9313 119.384C25.8224 119.172 25.7679 118.926 25.7679 118.647C25.7679 118.365 25.8224 118.119 25.9313 117.908C26.0402 117.696 26.1947 117.532 26.3947 117.415C26.5959 117.296 26.8345 117.237 27.1103 117.237C27.3861 117.237 27.624 117.296 27.824 117.415C28.0253 117.532 28.1803 117.696 28.2892 117.908C28.3981 118.119 28.4526 118.365 28.4526 118.647C28.4526 118.926 28.3981 119.172 28.2892 119.384C28.1803 119.595 28.0253 119.759 27.824 119.877C27.624 119.995 27.3861 120.053 27.1103 120.053ZM27.1138 119.467C27.2393 119.467 27.344 119.432 27.4281 119.361C27.5121 119.289 27.5755 119.19 27.6181 119.066C27.6619 118.942 27.6838 118.8 27.6838 118.642C27.6838 118.483 27.6619 118.342 27.6181 118.217C27.5755 118.093 27.5121 117.995 27.4281 117.923C27.344 117.85 27.2393 117.814 27.1138 117.814C26.9872 117.814 26.8806 117.85 26.7942 117.923C26.709 117.995 26.6445 118.093 26.6007 118.217C26.5581 118.342 26.5368 118.483 26.5368 118.642C26.5368 118.8 26.5581 118.942 26.6007 119.066C26.6445 119.19 26.709 119.289 26.7942 119.361C26.8806 119.432 26.9872 119.467 27.1138 119.467ZM30.6934 118.839V117.273H31.4498V120H30.7235V119.505H30.6951C30.6336 119.664 30.5312 119.793 30.388 119.89C30.2459 119.987 30.0725 120.036 29.8677 120.036C29.6854 120.036 29.525 119.994 29.3865 119.911C29.248 119.828 29.1397 119.711 29.0616 119.558C28.9847 119.405 28.9456 119.222 28.9444 119.009V117.273H29.7008V118.874C29.702 119.035 29.7452 119.163 29.8304 119.256C29.9157 119.35 30.0299 119.396 30.1731 119.396C30.2643 119.396 30.3495 119.376 30.4288 119.334C30.5081 119.292 30.572 119.229 30.6206 119.146C30.6703 119.063 30.6945 118.961 30.6934 118.839ZM32.8112 118.423V120H32.0548V117.273H32.7757V117.754H32.8076C32.868 117.595 32.9692 117.47 33.1112 117.377C33.2533 117.284 33.4255 117.237 33.6279 117.237C33.8173 117.237 33.9825 117.279 34.1233 117.362C34.2642 117.444 34.3737 117.563 34.4518 117.717C34.5299 117.869 34.569 118.052 34.569 118.263V120H33.8126V118.398C33.8138 118.232 33.7712 118.101 33.6847 118.008C33.5983 117.913 33.4794 117.866 33.3279 117.866C33.2261 117.866 33.1361 117.888 33.058 117.931C32.981 117.975 32.9207 118.039 32.8769 118.123C32.8343 118.206 32.8124 118.306 32.8112 118.423ZM36.3366 120V116.364H37.7712C38.047 116.364 38.282 116.416 38.4761 116.522C38.6702 116.626 38.8182 116.771 38.92 116.957C39.023 117.141 39.0745 117.354 39.0745 117.596C39.0745 117.837 39.0224 118.05 38.9182 118.235C38.8141 118.42 38.6631 118.564 38.4655 118.667C38.269 118.77 38.031 118.821 37.7517 118.821H36.8373V118.205H37.6274C37.7754 118.205 37.8973 118.179 37.9932 118.129C38.0902 118.076 38.1624 118.005 38.2098 117.914C38.2583 117.821 38.2826 117.715 38.2826 117.596C38.2826 117.475 38.2583 117.37 38.2098 117.28C38.1624 117.189 38.0902 117.118 37.9932 117.069C37.8961 117.018 37.773 116.992 37.6238 116.992H37.1054V120H36.3366ZM39.5597 120V117.273H40.293V117.749H40.3214C40.3711 117.579 40.4545 117.451 40.5717 117.365C40.6889 117.277 40.8239 117.234 40.9766 117.234C41.0144 117.234 41.0553 117.236 41.0991 117.241C41.1429 117.246 41.1813 117.252 41.2145 117.26V117.931C41.179 117.921 41.1299 117.911 41.0671 117.903C41.0044 117.895 40.947 117.891 40.8949 117.891C40.7836 117.891 40.6842 117.915 40.5966 117.963C40.5102 118.011 40.4415 118.077 40.3906 118.162C40.3409 118.248 40.3161 118.346 40.3161 118.457V120H39.5597ZM42.7108 120.053C42.435 120.053 42.1965 119.995 41.9953 119.877C41.7952 119.759 41.6408 119.595 41.5319 119.384C41.423 119.172 41.3685 118.926 41.3685 118.647C41.3685 118.365 41.423 118.119 41.5319 117.908C41.6408 117.696 41.7952 117.532 41.9953 117.415C42.1965 117.296 42.435 117.237 42.7108 117.237C42.9867 117.237 43.2246 117.296 43.4246 117.415C43.6259 117.532 43.7809 117.696 43.8898 117.908C43.9987 118.119 44.0532 118.365 44.0532 118.647C44.0532 118.926 43.9987 119.172 43.8898 119.384C43.7809 119.595 43.6259 119.759 43.4246 119.877C43.2246 119.995 42.9867 120.053 42.7108 120.053ZM42.7144 119.467C42.8399 119.467 42.9446 119.432 43.0287 119.361C43.1127 119.289 43.176 119.19 43.2187 119.066C43.2625 118.942 43.2844 118.8 43.2844 118.642C43.2844 118.483 43.2625 118.342 43.2187 118.217C43.176 118.093 43.1127 117.995 43.0287 117.923C42.9446 117.85 42.8399 117.814 42.7144 117.814C42.5877 117.814 42.4812 117.85 42.3948 117.923C42.3096 117.995 42.2451 118.093 42.2013 118.217C42.1586 118.342 42.1373 118.483 42.1373 118.642C42.1373 118.8 42.1586 118.942 42.2013 119.066C42.2451 119.19 42.3096 119.289 42.3948 119.361C42.4812 119.432 42.5877 119.467 42.7144 119.467ZM44.545 117.273H45.3014V120.135C45.3014 120.346 45.26 120.516 45.1771 120.646C45.0943 120.777 44.9753 120.872 44.8202 120.932C44.6663 120.993 44.4823 121.023 44.268 121.023C44.242 121.023 44.2171 121.022 44.1934 121.021C44.1686 121.021 44.1425 121.02 44.1153 121.019V120.428C44.1354 120.429 44.1532 120.43 44.1686 120.43C44.1828 120.431 44.1982 120.431 44.2148 120.431C44.3367 120.431 44.4219 120.405 44.4704 120.353C44.5202 120.302 44.545 120.225 44.545 120.123V117.273ZM44.9214 116.921C44.8102 116.921 44.7143 116.884 44.6338 116.809C44.5533 116.734 44.5131 116.643 44.5131 116.538C44.5131 116.433 44.5533 116.344 44.6338 116.27C44.7143 116.194 44.8102 116.156 44.9214 116.156C45.0351 116.156 45.1315 116.194 45.2108 116.27C45.2913 116.344 45.3316 116.433 45.3316 116.538C45.3316 116.643 45.2913 116.734 45.2108 116.809C45.1315 116.884 45.0351 116.921 44.9214 116.921ZM47.1502 120.053C46.8697 120.053 46.6282 119.996 46.4258 119.883C46.2246 119.768 46.0695 119.606 45.9606 119.396C45.8517 119.186 45.7972 118.936 45.7972 118.649C45.7972 118.368 45.8517 118.122 45.9606 117.91C46.0695 117.698 46.2228 117.533 46.4205 117.415C46.6193 117.296 46.8525 117.237 47.12 117.237C47.3 117.237 47.4674 117.266 47.6225 117.324C47.7788 117.381 47.9149 117.467 48.0309 117.582C48.1481 117.696 48.2392 117.841 48.3043 118.015C48.3694 118.188 48.402 118.39 48.402 118.622V118.83H46.0991V118.361H47.69C47.69 118.252 47.6663 118.156 47.619 118.072C47.5716 117.988 47.5059 117.922 47.4219 117.875C47.339 117.826 47.2425 117.802 47.1325 117.802C47.0176 117.802 46.9158 117.828 46.8271 117.882C46.7395 117.934 46.6708 118.004 46.6211 118.093C46.5714 118.181 46.5459 118.278 46.5447 118.386V118.832C46.5447 118.967 46.5696 119.083 46.6193 119.181C46.6702 119.28 46.7418 119.355 46.8342 119.409C46.9265 119.462 47.036 119.489 47.1626 119.489C47.2467 119.489 47.3236 119.477 47.3935 119.453C47.4633 119.429 47.5231 119.394 47.5728 119.347C47.6225 119.299 47.6604 119.241 47.6864 119.173L48.386 119.219C48.3505 119.387 48.2777 119.534 48.1676 119.659C48.0587 119.783 47.9179 119.88 47.745 119.95C47.5734 120.019 47.3751 120.053 47.1502 120.053ZM50.1278 120.053C49.8485 120.053 49.6082 119.994 49.407 119.876C49.2069 119.756 49.053 119.59 48.9453 119.379C48.8388 119.167 48.7855 118.923 48.7855 118.647C48.7855 118.368 48.8394 118.123 48.9471 117.912C49.056 117.7 49.2105 117.535 49.4105 117.417C49.6106 117.297 49.8485 117.237 50.1243 117.237C50.3622 117.237 50.5705 117.28 50.7493 117.367C50.928 117.453 51.0695 117.575 51.1737 117.731C51.2778 117.887 51.3352 118.071 51.3459 118.281H50.6321C50.612 118.145 50.5587 118.036 50.4723 117.953C50.3871 117.869 50.2752 117.827 50.1367 117.827C50.0195 117.827 49.9171 117.859 49.8295 117.923C49.7431 117.985 49.6757 118.077 49.6271 118.198C49.5786 118.319 49.5543 118.465 49.5543 118.636C49.5543 118.81 49.578 118.958 49.6254 119.08C49.6739 119.202 49.742 119.295 49.8295 119.359C49.9171 119.423 50.0195 119.455 50.1367 119.455C50.2231 119.455 50.3007 119.437 50.3693 119.402C50.4392 119.366 50.4966 119.315 50.5415 119.247C50.5877 119.179 50.6179 119.096 50.6321 119H51.3459C51.334 119.209 51.2772 119.392 51.1754 119.551C51.0748 119.708 50.9357 119.831 50.7582 119.92C50.5806 120.009 50.3705 120.053 50.1278 120.053ZM53.2808 117.273V117.841H51.6384V117.273H53.2808ZM52.0113 116.619H52.7677V119.162C52.7677 119.232 52.7783 119.286 52.7996 119.325C52.8209 119.363 52.8505 119.39 52.8884 119.405C52.9275 119.421 52.9724 119.428 53.0233 119.428C53.0589 119.428 53.0944 119.425 53.1299 119.419C53.1654 119.412 53.1926 119.407 53.2116 119.403L53.3305 119.966C53.2926 119.978 53.2394 119.992 53.1707 120.007C53.1021 120.024 53.0186 120.034 52.9204 120.037C52.7381 120.044 52.5783 120.02 52.441 119.964C52.3048 119.909 52.1989 119.822 52.1231 119.705C52.0474 119.588 52.0101 119.44 52.0113 119.261V116.619Z" fill="#992627"/>
</svg>
