<svg width="800" height="800" viewBox="0 0 800 800" fill="none" xmlns="http://www.w3.org/2000/svg">
<g clip-path="url(#clip0_166_29)">
<path d="M636.69 385.298C614.763 385.298 595.294 396.016 583.247 412.49C571.2 396.016 551.733 385.298 529.806 385.298C507.88 385.298 488.41 396.016 476.363 412.49C464.317 396.016 444.849 385.298 422.923 385.298C407.58 385.298 393.443 390.545 382.207 399.341V218.897C382.207 182.412 352.524 152.727 316.039 152.727C279.554 152.727 249.869 182.41 249.869 218.897V685.455C249.869 748.616 301.253 800 364.414 800H588.311C651.472 800 702.856 748.616 702.856 685.455V451.466C702.858 414.98 673.174 385.298 636.69 385.298ZM677.403 685.455C677.403 734.58 637.438 774.545 588.312 774.545H364.416C315.291 774.545 275.325 734.58 275.325 685.455V218.897C275.325 196.448 293.59 178.182 316.041 178.182C338.492 178.182 356.754 196.446 356.754 218.897V476.921C356.754 483.95 362.453 489.648 369.482 489.648C376.51 489.648 382.209 483.95 382.209 476.921V451.466C382.209 429.017 400.473 410.753 422.924 410.753C445.375 410.753 463.638 429.017 463.638 451.466V476.921C463.638 483.95 469.336 489.648 476.365 489.648C483.394 489.648 489.092 483.95 489.092 476.921V451.466C489.092 429.017 507.357 410.753 529.808 410.753C552.259 410.753 570.521 429.017 570.521 451.466V476.921C570.521 483.95 576.22 489.648 583.249 489.648C590.278 489.648 595.976 483.95 595.976 476.921V451.466C595.976 429.017 614.24 410.753 636.691 410.753C659.142 410.753 677.405 429.017 677.405 451.466V685.455H677.403Z" fill="#992627"/>
<path d="M433.116 218.897C433.116 244.177 425.179 268.25 410.164 288.513C405.98 294.161 407.164 302.132 412.813 306.316C418.459 310.499 426.431 309.315 430.616 303.667C448.904 278.987 458.572 249.673 458.572 218.895C458.572 140.304 394.632 76.3618 316.04 76.3618C237.449 76.3618 173.507 140.302 173.507 218.895C173.507 249.673 183.174 278.987 201.463 303.669C203.961 307.039 207.803 308.819 211.699 308.819C214.332 308.819 216.988 308.005 219.266 306.316C224.913 302.132 226.099 294.161 221.915 288.513C206.898 268.25 198.961 244.177 198.961 218.895C198.961 154.339 251.483 101.816 316.04 101.816C380.598 101.816 433.116 154.339 433.116 218.897Z" fill="#992627"/>
<path d="M218.139 385.758C159.207 351.101 122.596 287.163 122.596 218.897C122.596 175.385 136.708 134.29 163.405 100.053C167.727 94.5111 166.738 86.5132 161.195 82.1911C155.653 77.8672 147.655 78.8565 143.333 84.4005C113.115 123.151 97.1416 169.66 97.1416 218.897C97.1416 257.729 107.447 295.878 126.945 329.222C145.86 361.566 172.932 388.703 205.235 407.7C207.261 408.893 209.483 409.458 211.675 409.458C216.038 409.458 220.285 407.213 222.658 403.181C226.221 397.121 224.199 389.32 218.139 385.758Z" fill="#992627"/>
<path d="M197.195 66.2632C231.431 39.5665 272.527 25.4545 316.039 25.4545C422.701 25.4545 509.479 112.232 509.479 218.897C509.479 267.172 491.597 313.401 459.125 349.071C454.394 354.269 454.772 362.32 459.97 367.051C462.411 369.272 465.477 370.367 468.535 370.367C471.993 370.367 475.438 368.965 477.95 366.207C514.696 325.84 534.934 273.524 534.934 218.897C534.934 98.1968 436.739 0 316.039 0C266.801 0 220.294 15.9736 181.542 46.1915C175.998 50.5137 175.009 58.5115 179.331 64.0538C183.655 69.5978 191.653 70.5888 197.195 66.2632Z" fill="#992627"/>
</g>
<defs>
<clipPath id="clip0_166_29">
<rect width="800" height="800" fill="white"/>
</clipPath>
</defs>
</svg>
